<svg width="91" height="91" viewBox="0 0 91 91" fill="none" xmlns="http://www.w3.org/2000/svg">
<rect y="45.2548" width="64" height="64" rx="8" transform="rotate(-45 0 45.2548)" fill="#FF6E00"/>
<path d="M60 54C60 58.16 58.54 61.7 55.62 64.62C52.7 67.54 49.16 69 45 69C40.84 69 37.3 67.54 34.38 64.62C31.46 61.7 30 58.16 30 54V31.8C30 28.8 31.05 26.25 33.15 24.15C35.25 22.05 37.8 21 40.8 21C43.8 21 46.35 22.05 48.45 24.15C50.55 26.25 51.6 28.8 51.6 31.8V52.8C51.6 54.64 50.96 56.2 49.68 57.48C48.4 58.76 46.84 59.4 45 59.4C43.16 59.4 41.6 58.76 40.32 57.48C39.04 56.2 38.4 54.64 38.4 52.8V30.6H43.2V52.8C43.2 53.32 43.37 53.75 43.71 54.09C44.05 54.43 44.48 54.6 45 54.6C45.52 54.6 45.95 54.43 46.29 54.09C46.63 53.75 46.8 53.32 46.8 52.8V31.8C46.76 30.12 46.17 28.7 45.03 27.54C43.89 26.38 42.48 25.8 40.8 25.8C39.12 25.8 37.7 26.38 36.54 27.54C35.38 28.7 34.8 30.12 34.8 31.8V54C34.76 56.84 35.74 59.25 37.74 61.23C39.74 63.21 42.16 64.2 45 64.2C47.8 64.2 50.18 63.21 52.14 61.23C54.1 59.25 55.12 56.84 55.2 54V30.6H60V54Z" fill="#F4F2F0"/>
</svg>
