<?xml version="1.0" encoding="UTF-8"?>
<svg xmlns="http://www.w3.org/2000/svg" xmlns:xlink="http://www.w3.org/1999/xlink" width="30px" height="20px" viewBox="0 0 30 20" version="1.1">
<g id="surface1">
<path style="fill-rule:evenodd;fill:rgb(40.000001%,60.000002%,100%);fill-opacity:1;stroke-width:1.280875;stroke-linecap:butt;stroke-linejoin:miter;stroke:rgb(0%,0%,0%);stroke-opacity:1;stroke-miterlimit:4;" d="M -1063.642087 -744.127215 L -0.638379 -744.127215 L -0.638379 0.0781397 L -1063.642087 0.0781397 Z M -1063.642087 -744.127215 " transform="matrix(-0.0281815,0,0,-0.0268323,0.00154076,0.0177217)"/>
<path style=" stroke:none;fill-rule:evenodd;fill:rgb(100%,100%,100%);fill-opacity:1;" d="M 14.953125 10.074219 L 15.121094 10.074219 L 15.121094 14 L 14.953125 14 Z M 14.953125 10.074219 "/>
<path style=" stroke:none;fill-rule:evenodd;fill:rgb(100%,100%,100%);fill-opacity:1;" d="M 14.140625 9.6875 L 14.257812 9.800781 L 11.339844 12.574219 L 11.222656 12.464844 Z M 14.140625 9.6875 "/>
<path style=" stroke:none;fill-rule:evenodd;fill:rgb(100%,100%,100%);fill-opacity:1;" d="M 13.875 8.855469 L 13.875 9.011719 L 9.75 9.011719 L 9.75 8.855469 Z M 13.875 8.855469 "/>
<path style=" stroke:none;fill-rule:evenodd;fill:rgb(100%,100%,100%);fill-opacity:1;" d="M 14.253906 8.113281 L 14.136719 8.226562 L 11.222656 5.449219 L 11.339844 5.339844 Z M 14.253906 8.113281 "/>
<path style=" stroke:none;fill-rule:evenodd;fill:rgb(100%,100%,100%);fill-opacity:1;" d="M 15.132812 7.789062 L 14.96875 7.789062 L 14.972656 3.863281 L 15.136719 3.863281 Z M 15.132812 7.789062 "/>
<path style=" stroke:none;fill-rule:evenodd;fill:rgb(100%,100%,100%);fill-opacity:1;" d="M 16.023438 8.167969 L 15.90625 8.054688 L 18.824219 5.28125 L 18.941406 5.394531 Z M 16.023438 8.167969 "/>
<path style=" stroke:none;fill-rule:evenodd;fill:rgb(100%,100%,100%);fill-opacity:1;" d="M 16.328125 9.058594 L 16.328125 8.902344 L 20.453125 8.902344 L 20.453125 9.058594 Z M 16.328125 9.058594 "/>
<path style=" stroke:none;fill-rule:evenodd;fill:rgb(100%,100%,100%);fill-opacity:1;" d="M 15.863281 9.839844 L 15.980469 9.726562 L 18.898438 12.503906 L 18.78125 12.613281 Z M 15.863281 9.839844 "/>
<path style=" stroke:none;fill-rule:evenodd;fill:rgb(100%,100%,100%);fill-opacity:1;" d="M 17.023438 4.074219 C 19.84375 5.078125 21.277344 8.070312 20.222656 10.753906 C 19.167969 13.441406 16.027344 14.804688 13.207031 13.800781 C 10.386719 12.796875 8.957031 9.804688 10.007812 7.121094 C 11.0625 4.4375 14.207031 3.070312 17.023438 4.074219 Z M 16.957031 4.25 C 19.671875 5.21875 21.054688 8.101562 20.039062 10.691406 C 19.023438 13.277344 15.992188 14.589844 13.277344 13.625 C 10.558594 12.65625 9.179688 9.773438 10.195312 7.1875 C 11.210938 4.597656 14.238281 3.285156 16.957031 4.25 Z M 16.957031 4.25 "/>
<path style=" stroke:none;fill-rule:evenodd;fill:rgb(100%,100%,100%);fill-opacity:1;" d="M 16.652344 5.019531 C 18.925781 5.828125 20.078125 8.238281 19.230469 10.402344 C 18.382812 12.566406 15.847656 13.664062 13.578125 12.855469 C 11.308594 12.046875 10.152344 9.636719 11 7.472656 C 11.851562 5.3125 14.382812 4.210938 16.652344 5.019531 Z M 16.585938 5.191406 C 18.761719 5.964844 19.863281 8.269531 19.050781 10.339844 C 18.238281 12.40625 15.816406 13.457031 13.644531 12.683594 C 11.472656 11.914062 10.367188 9.605469 11.179688 7.535156 C 11.992188 5.46875 14.414062 4.417969 16.585938 5.191406 Z M 16.585938 5.191406 "/>
<path style=" stroke:none;fill-rule:evenodd;fill:rgb(100%,100%,100%);fill-opacity:1;" d="M 16.300781 5.917969 C 18.050781 6.542969 18.941406 8.398438 18.289062 10.066406 C 17.632812 11.734375 15.679688 12.582031 13.929688 11.957031 C 12.179688 11.335938 11.289062 9.476562 11.945312 7.808594 C 12.597656 6.140625 14.550781 5.296875 16.300781 5.917969 Z M 16.234375 6.089844 C 17.886719 6.675781 18.726562 8.429688 18.109375 10.003906 C 17.492188 11.574219 15.648438 12.375 13.996094 11.789062 C 12.34375 11.199219 11.507812 9.445312 12.125 7.871094 C 12.742188 6.300781 14.582031 5.5 16.234375 6.089844 Z M 16.234375 6.089844 "/>
<path style=" stroke:none;fill-rule:evenodd;fill:rgb(100%,100%,100%);fill-opacity:1;" d="M 15.960938 6.789062 C 17.207031 7.230469 17.839844 8.554688 17.375 9.742188 C 16.90625 10.929688 15.519531 11.53125 14.273438 11.085938 C 13.027344 10.644531 12.394531 9.320312 12.859375 8.132812 C 13.324219 6.949219 14.714844 6.34375 15.960938 6.789062 Z M 15.898438 6.945312 C 17.054688 7.355469 17.640625 8.582031 17.210938 9.683594 C 16.777344 10.78125 15.488281 11.34375 14.332031 10.929688 C 13.179688 10.519531 12.589844 9.292969 13.023438 8.191406 C 13.453125 7.09375 14.742188 6.535156 15.898438 6.945312 Z M 15.898438 6.945312 "/>
<path style=" stroke:none;fill-rule:evenodd;fill:rgb(100%,100%,100%);fill-opacity:1;" d="M 15.574219 7.769531 C 16.253906 8.007812 16.597656 8.730469 16.34375 9.375 C 16.089844 10.019531 15.335938 10.347656 14.65625 10.109375 C 13.976562 9.867188 13.632812 9.144531 13.886719 8.5 C 14.140625 7.855469 14.898438 7.527344 15.574219 7.769531 Z M 15.507812 7.9375 C 16.089844 8.144531 16.382812 8.757812 16.167969 9.3125 C 15.949219 9.863281 15.304688 10.144531 14.722656 9.9375 C 14.144531 9.734375 13.847656 9.117188 14.066406 8.5625 C 14.28125 8.011719 14.929688 7.730469 15.507812 7.9375 Z M 15.507812 7.9375 "/>
<path style=" stroke:none;fill-rule:nonzero;fill:rgb(100%,100%,100%);fill-opacity:1;" d="M 18.621094 10.890625 C 18.628906 10.914062 18.628906 10.980469 18.644531 10.996094 C 18.660156 11.015625 18.710938 11.003906 18.730469 10.992188 C 18.785156 10.960938 18.835938 10.878906 18.855469 10.816406 C 18.871094 10.785156 18.878906 10.75 18.871094 10.714844 L 18.8125 10.601562 C 18.792969 10.558594 18.769531 10.488281 18.722656 10.476562 C 18.722656 10.464844 18.734375 10.445312 18.730469 10.429688 C 18.714844 10.382812 18.632812 10.40625 18.609375 10.445312 C 18.59375 10.464844 18.605469 10.503906 18.605469 10.523438 C 18.609375 10.570312 18.609375 10.65625 18.597656 10.699219 C 18.582031 10.742188 18.539062 10.800781 18.546875 10.84375 C 18.554688 10.875 18.59375 10.890625 18.621094 10.890625 Z M 15.800781 10.953125 L 15.820312 10.980469 C 15.824219 10.988281 15.832031 10.996094 15.835938 10.996094 C 15.878906 11.023438 15.921875 10.9375 15.855469 10.933594 C 15.851562 10.9375 15.835938 10.933594 15.832031 10.941406 C 15.824219 10.941406 15.8125 10.945312 15.800781 10.953125 Z M 15.832031 10.867188 C 15.808594 10.894531 15.804688 10.914062 15.847656 10.925781 Z M 15.09375 10.492188 C 15.058594 10.535156 15.058594 10.511719 15.039062 10.527344 C 15.023438 10.542969 15.039062 10.554688 15.027344 10.582031 C 15.027344 10.59375 15.011719 10.601562 15.011719 10.613281 C 15.011719 10.628906 15.03125 10.636719 15.046875 10.636719 C 15.070312 10.636719 15.136719 10.621094 15.15625 10.605469 C 15.175781 10.585938 15.164062 10.566406 15.171875 10.546875 L 15.1875 10.519531 C 15.1875 10.492188 15.121094 10.46875 15.09375 10.492188 Z M 16.6875 10.09375 L 16.703125 10.148438 L 16.703125 10.191406 C 16.761719 10.171875 16.796875 10.148438 16.847656 10.121094 C 16.863281 10.109375 16.890625 10.09375 16.90625 10.101562 C 16.925781 10.109375 16.917969 10.125 16.914062 10.136719 C 16.910156 10.160156 16.878906 10.207031 16.867188 10.226562 C 16.828125 10.28125 16.761719 10.296875 16.710938 10.351562 C 16.6875 10.386719 16.679688 10.414062 16.65625 10.449219 C 16.628906 10.480469 16.609375 10.492188 16.59375 10.507812 C 16.582031 10.527344 16.59375 10.535156 16.566406 10.558594 L 16.578125 10.515625 C 16.5625 10.515625 16.539062 10.519531 16.523438 10.507812 C 16.515625 10.492188 16.511719 10.476562 16.511719 10.460938 C 16.515625 10.425781 16.511719 10.335938 16.527344 10.3125 C 16.53125 10.304688 16.570312 10.285156 16.585938 10.273438 C 16.585938 10.273438 16.585938 10.308594 16.585938 10.308594 C 16.601562 10.304688 16.628906 10.300781 16.636719 10.289062 C 16.664062 10.277344 16.683594 10.21875 16.695312 10.195312 C 16.695312 10.195312 16.625 10.234375 16.625 10.234375 C 16.632812 10.199219 16.660156 10.125 16.6875 10.09375 Z M 15.210938 10.472656 C 15.207031 10.523438 15.234375 10.5 15.257812 10.515625 C 15.273438 10.523438 15.277344 10.539062 15.28125 10.554688 L 15.238281 10.570312 L 15.222656 10.601562 L 15.199219 10.636719 C 15.199219 10.636719 15.277344 10.644531 15.277344 10.644531 C 15.242188 10.664062 15.21875 10.664062 15.199219 10.703125 L 15.292969 10.679688 C 15.355469 10.671875 15.402344 10.675781 15.457031 10.636719 L 15.445312 10.628906 L 15.453125 10.578125 L 15.410156 10.558594 C 15.410156 10.558594 15.390625 10.53125 15.390625 10.53125 L 15.308594 10.460938 L 15.28125 10.453125 C 15.300781 10.429688 15.335938 10.382812 15.273438 10.378906 L 15.246094 10.378906 L 15.265625 10.347656 C 15.230469 10.351562 15.203125 10.351562 15.179688 10.378906 C 15.15625 10.417969 15.160156 10.460938 15.210938 10.472656 Z M 15.082031 9.785156 L 15.085938 9.820312 C 15.085938 9.820312 15.070312 9.808594 15.070312 9.808594 L 15.082031 9.871094 C 15.097656 9.90625 15.136719 9.886719 15.144531 9.875 C 15.15625 9.867188 15.15625 9.84375 15.152344 9.832031 C 15.152344 9.824219 15.140625 9.8125 15.136719 9.808594 C 15.121094 9.808594 15.117188 9.808594 15.105469 9.8125 L 15.097656 9.78125 Z M 10.523438 10.785156 C 10.535156 10.867188 10.554688 10.859375 10.585938 10.925781 C 10.601562 10.960938 10.585938 10.976562 10.625 11.042969 C 10.644531 11.074219 10.660156 11.105469 10.695312 11.113281 C 10.675781 11.023438 10.65625 10.972656 10.613281 10.890625 C 10.582031 10.84375 10.5625 10.84375 10.535156 10.78125 Z M 18.121094 8.789062 C 18.09375 8.804688 18.085938 8.824219 18.09375 8.851562 C 18.09375 8.878906 18.125 8.894531 18.148438 8.882812 C 18.183594 8.863281 18.179688 8.769531 18.121094 8.789062 Z M 12.835938 9.535156 C 12.828125 9.566406 12.828125 9.59375 12.863281 9.609375 C 12.855469 9.582031 12.859375 9.550781 12.835938 9.535156 Z M 14.492188 9.324219 L 14.511719 9.335938 C 14.546875 9.292969 14.554688 9.269531 14.578125 9.230469 C 14.597656 9.199219 14.617188 9.195312 14.628906 9.179688 C 14.636719 9.167969 14.636719 9.15625 14.636719 9.140625 C 14.640625 9.117188 14.65625 9.109375 14.648438 9.070312 C 14.644531 9.039062 14.617188 8.996094 14.578125 9.007812 L 14.566406 8.984375 C 14.550781 8.988281 14.523438 9 14.511719 9.011719 C 14.496094 9.027344 14.507812 9.046875 14.488281 9.070312 C 14.46875 9.101562 14.425781 9.121094 14.417969 9.128906 C 14.402344 9.140625 14.410156 9.152344 14.386719 9.175781 C 14.355469 9.207031 14.328125 9.195312 14.308594 9.207031 C 14.28125 9.21875 14.246094 9.265625 14.230469 9.285156 C 14.203125 9.324219 14.199219 9.347656 14.191406 9.386719 C 14.1875 9.398438 14.179688 9.417969 14.191406 9.425781 C 14.199219 9.4375 14.214844 9.433594 14.222656 9.425781 C 14.246094 9.414062 14.289062 9.382812 14.308594 9.382812 C 14.324219 9.378906 14.332031 9.390625 14.34375 9.390625 C 14.363281 9.394531 14.375 9.390625 14.386719 9.394531 C 14.398438 9.394531 14.414062 9.410156 14.425781 9.417969 C 14.457031 9.425781 14.484375 9.386719 14.488281 9.363281 C 14.492188 9.351562 14.496094 9.339844 14.492188 9.324219 Z M 14.464844 8.90625 L 14.46875 8.914062 L 14.460938 8.910156 Z M 14.519531 8.9375 C 14.539062 8.96875 14.597656 8.992188 14.632812 9.011719 C 14.644531 9.003906 14.648438 9 14.648438 8.988281 C 14.660156 8.957031 14.648438 8.90625 14.613281 8.894531 C 14.59375 8.886719 14.574219 8.898438 14.558594 8.90625 C 14.558594 8.902344 14.546875 8.886719 14.542969 8.882812 C 14.492188 8.851562 14.453125 8.972656 14.519531 8.9375 Z M 14.277344 8.902344 C 14.320312 8.929688 14.320312 8.933594 14.371094 8.921875 C 14.367188 8.957031 14.332031 9.015625 14.289062 9 C 14.265625 8.988281 14.257812 8.964844 14.246094 8.964844 C 14.226562 8.957031 14.230469 8.996094 14.222656 9.007812 C 14.203125 9.050781 14.164062 9.054688 14.167969 9.121094 L 14.1875 9.105469 C 14.214844 9.144531 14.25 9.089844 14.273438 9.074219 C 14.269531 9.082031 14.261719 9.09375 14.257812 9.105469 C 14.257812 9.121094 14.277344 9.132812 14.292969 9.125 C 14.308594 9.117188 14.324219 9.085938 14.339844 9.070312 C 14.351562 9.054688 14.359375 9.054688 14.371094 9.046875 C 14.386719 9.03125 14.40625 9.011719 14.417969 8.996094 C 14.460938 8.953125 14.464844 8.972656 14.472656 8.917969 C 14.472656 8.90625 14.476562 8.898438 14.472656 8.890625 C 14.445312 8.84375 14.371094 8.894531 14.363281 8.890625 L 14.328125 8.890625 C 14.316406 8.886719 14.292969 8.898438 14.277344 8.902344 Z M 14.535156 8.851562 L 14.507812 8.859375 L 14.515625 8.875 C 14.546875 8.859375 14.570312 8.855469 14.566406 8.816406 C 14.539062 8.824219 14.53125 8.824219 14.535156 8.851562 Z M 12.789062 9.207031 L 12.78125 9.332031 L 12.796875 9.382812 L 12.835938 9.484375 C 12.847656 9.460938 12.863281 9.382812 12.863281 9.355469 L 12.863281 9.3125 C 12.859375 9.28125 12.863281 9.269531 12.84375 9.238281 L 12.8125 9.273438 C 12.8125 9.273438 12.800781 9.203125 12.800781 9.203125 Z M 14.585938 8.808594 C 14.578125 8.773438 14.585938 8.78125 14.613281 8.777344 L 14.605469 8.722656 C 14.589844 8.734375 14.570312 8.738281 14.554688 8.753906 C 14.535156 8.785156 14.539062 8.8125 14.585938 8.808594 Z M 14.410156 8.757812 C 14.410156 8.757812 14.433594 8.777344 14.433594 8.777344 C 14.46875 8.761719 14.484375 8.769531 14.519531 8.773438 L 14.503906 8.753906 C 14.503906 8.753906 14.515625 8.730469 14.515625 8.730469 C 14.546875 8.722656 14.546875 8.695312 14.527344 8.671875 C 14.519531 8.667969 14.507812 8.664062 14.5 8.660156 C 14.4375 8.636719 14.4375 8.683594 14.425781 8.710938 Z M 14.550781 8.71875 C 14.5625 8.71875 14.574219 8.714844 14.585938 8.707031 C 14.601562 8.6875 14.582031 8.636719 14.5625 8.628906 C 14.546875 8.628906 14.539062 8.644531 14.542969 8.65625 L 14.539062 8.671875 Z M 12.777344 9.109375 C 12.792969 9.082031 12.792969 9.042969 12.792969 9.015625 C 12.757812 9.042969 12.765625 9.074219 12.777344 9.109375 Z M 12.925781 8.734375 C 12.9375 8.78125 12.9375 8.828125 12.925781 8.875 C 12.910156 8.929688 12.867188 9.003906 12.859375 9.054688 C 12.859375 9.054688 12.847656 9.042969 12.847656 9.042969 C 12.828125 9.082031 12.835938 9.15625 12.855469 9.191406 C 12.882812 9.15625 12.882812 9.117188 12.898438 9.082031 C 12.921875 9.003906 12.964844 8.933594 12.972656 8.847656 C 12.972656 8.824219 12.96875 8.765625 12.953125 8.746094 C 12.941406 8.738281 12.9375 8.738281 12.925781 8.734375 Z M 18.03125 8.148438 C 18.054688 8.101562 18.050781 8.019531 18.054688 7.96875 C 18.066406 7.851562 18.113281 7.789062 18.078125 7.648438 C 18.070312 7.613281 18.050781 7.554688 18.007812 7.550781 C 17.945312 7.554688 17.980469 7.628906 17.980469 7.648438 C 17.984375 7.664062 17.980469 7.675781 17.976562 7.6875 C 17.957031 7.746094 17.980469 7.808594 17.988281 7.867188 L 18.003906 8.066406 Z M 17 7.355469 C 17 7.367188 17.007812 7.371094 17.015625 7.378906 L 17.039062 7.390625 C 17.074219 7.40625 17.089844 7.371094 17.074219 7.351562 C 17.066406 7.339844 17.042969 7.339844 17.03125 7.34375 C 17.019531 7.347656 17.007812 7.347656 17 7.355469 Z M 17.820312 7.144531 C 17.832031 7.191406 17.863281 7.269531 17.890625 7.304688 L 17.953125 7.386719 L 18.035156 7.546875 C 18.058594 7.507812 18.039062 7.464844 18.023438 7.429688 C 17.988281 7.359375 17.941406 7.292969 17.902344 7.230469 C 17.875 7.199219 17.855469 7.164062 17.820312 7.144531 Z M 17.5 7.101562 L 17.503906 7.160156 C 17.503906 7.160156 17.425781 7.148438 17.425781 7.148438 C 17.429688 7.183594 17.453125 7.238281 17.492188 7.265625 L 17.558594 7.300781 C 17.613281 7.332031 17.667969 7.367188 17.71875 7.40625 C 17.765625 7.445312 17.769531 7.460938 17.785156 7.480469 C 17.800781 7.488281 17.8125 7.496094 17.828125 7.488281 C 17.835938 7.480469 17.835938 7.453125 17.839844 7.441406 C 17.839844 7.441406 17.851562 7.402344 17.851562 7.402344 C 17.855469 7.375 17.828125 7.335938 17.8125 7.3125 L 17.765625 7.242188 C 17.746094 7.207031 17.730469 7.175781 17.699219 7.148438 C 17.652344 7.117188 17.617188 7.125 17.570312 7.117188 Z M 15.957031 7.398438 C 15.957031 7.421875 15.960938 7.453125 15.933594 7.464844 C 15.925781 7.464844 15.90625 7.464844 15.898438 7.460938 L 15.882812 7.527344 C 15.878906 7.542969 15.867188 7.589844 15.871094 7.609375 C 15.871094 7.636719 15.910156 7.625 15.925781 7.601562 C 15.945312 7.578125 15.945312 7.550781 15.953125 7.527344 C 15.972656 7.476562 16.011719 7.453125 16.007812 7.398438 Z M 17.660156 6.949219 C 17.683594 6.992188 17.695312 6.996094 17.730469 7.03125 C 17.746094 7.054688 17.746094 7.074219 17.777344 7.058594 C 17.753906 7.039062 17.6875 6.957031 17.660156 6.949219 Z M 15.359375 7.570312 C 15.292969 7.574219 15.34375 7.632812 15.339844 7.664062 C 15.332031 7.691406 15.273438 7.746094 15.242188 7.730469 C 15.226562 7.738281 15.210938 7.742188 15.191406 7.742188 C 15.171875 7.742188 15.160156 7.734375 15.144531 7.738281 L 15.0625 7.8125 C 15.050781 7.824219 15.03125 7.839844 15.007812 7.847656 C 14.992188 7.851562 14.96875 7.855469 14.960938 7.867188 C 14.945312 7.882812 14.964844 7.910156 14.976562 7.925781 L 15.007812 7.957031 C 14.953125 7.980469 14.964844 8.019531 14.976562 8.066406 C 14.984375 8.089844 15.007812 8.1875 15.019531 8.207031 C 15.03125 8.230469 15.070312 8.25 15.101562 8.253906 C 15.121094 8.261719 15.148438 8.257812 15.164062 8.253906 L 15.160156 8.191406 L 15.175781 8.1875 L 15.199219 8.234375 L 15.222656 8.230469 C 15.222656 8.230469 15.292969 8.234375 15.292969 8.234375 C 15.300781 8.242188 15.300781 8.242188 15.308594 8.246094 C 15.316406 8.257812 15.308594 8.289062 15.3125 8.304688 C 15.328125 8.339844 15.367188 8.339844 15.402344 8.335938 C 15.40625 8.378906 15.410156 8.367188 15.410156 8.394531 C 15.417969 8.417969 15.402344 8.421875 15.441406 8.476562 C 15.453125 8.484375 15.46875 8.507812 15.484375 8.503906 C 15.503906 8.5 15.53125 8.453125 15.566406 8.429688 C 15.578125 8.453125 15.578125 8.460938 15.605469 8.46875 L 15.601562 8.5 L 15.660156 8.453125 C 15.652344 8.539062 15.613281 8.523438 15.582031 8.582031 C 15.570312 8.613281 15.585938 8.636719 15.578125 8.664062 L 15.585938 8.667969 L 15.605469 8.652344 L 15.621094 8.644531 C 15.667969 8.628906 15.636719 8.691406 15.640625 8.703125 C 15.644531 8.71875 15.65625 8.71875 15.671875 8.722656 L 15.648438 8.746094 L 15.667969 8.777344 L 15.566406 8.800781 C 15.519531 8.820312 15.484375 8.859375 15.445312 8.898438 L 15.449219 8.90625 L 15.464844 8.910156 L 15.375 8.96875 C 15.40625 8.972656 15.441406 8.953125 15.46875 8.945312 C 15.496094 8.933594 15.492188 8.941406 15.523438 8.929688 L 15.542969 8.9375 L 15.542969 8.957031 L 15.671875 8.976562 C 15.703125 8.984375 15.722656 8.96875 15.738281 8.972656 C 15.765625 8.984375 15.761719 9.011719 15.804688 9.015625 C 15.851562 9.019531 15.882812 8.988281 15.921875 8.976562 L 15.882812 9.03125 L 15.910156 9.0625 L 15.960938 9.039062 C 15.925781 9.085938 15.925781 9.054688 15.847656 9.070312 C 15.867188 9.078125 15.921875 9.09375 15.933594 9.09375 C 15.964844 9.101562 15.980469 9.085938 16.023438 9.09375 C 16.058594 9.09375 16.101562 9.113281 16.109375 9.0625 C 16.117188 9.070312 16.125 9.078125 16.132812 9.082031 C 16.148438 9.089844 16.160156 9.085938 16.179688 9.089844 C 16.203125 9.089844 16.261719 9.113281 16.261719 9.140625 C 16.257812 9.148438 16.253906 9.15625 16.25 9.160156 C 16.242188 9.148438 16.230469 9.132812 16.214844 9.121094 C 16.179688 9.089844 16.132812 9.109375 16.089844 9.109375 C 16.089844 9.109375 16.007812 9.101562 16.007812 9.101562 L 15.941406 9.105469 C 15.910156 9.105469 15.886719 9.089844 15.855469 9.097656 C 15.84375 9.101562 15.828125 9.109375 15.832031 9.121094 C 15.832031 9.128906 15.847656 9.136719 15.855469 9.140625 C 15.890625 9.15625 15.875 9.140625 15.9375 9.167969 C 15.96875 9.183594 15.980469 9.175781 16.007812 9.179688 L 16.039062 9.1875 C 16.0625 9.1875 16.066406 9.175781 16.089844 9.175781 C 16.101562 9.175781 16.125 9.175781 16.136719 9.175781 L 16.046875 9.230469 C 16.046875 9.230469 15.96875 9.230469 15.96875 9.230469 C 15.988281 9.261719 15.996094 9.265625 15.976562 9.296875 L 15.957031 9.28125 C 15.945312 9.300781 15.949219 9.308594 15.9375 9.328125 L 15.914062 9.363281 C 15.914062 9.375 15.898438 9.394531 15.890625 9.394531 C 15.871094 9.398438 15.851562 9.382812 15.835938 9.375 C 15.8125 9.363281 15.800781 9.367188 15.773438 9.378906 C 15.796875 9.40625 15.808594 9.398438 15.839844 9.40625 C 15.867188 9.417969 15.933594 9.457031 15.957031 9.476562 C 15.949219 9.476562 15.945312 9.476562 15.941406 9.488281 C 15.933594 9.503906 15.953125 9.546875 15.964844 9.5625 C 15.980469 9.570312 15.992188 9.570312 16.007812 9.570312 L 15.949219 9.636719 C 15.980469 9.640625 15.992188 9.632812 16.019531 9.648438 L 15.964844 9.664062 L 15.882812 9.621094 L 15.800781 9.601562 C 15.828125 9.597656 15.875 9.59375 15.902344 9.578125 C 15.945312 9.542969 15.914062 9.496094 15.875 9.472656 C 15.847656 9.460938 15.832031 9.464844 15.800781 9.464844 C 15.777344 9.464844 15.742188 9.457031 15.71875 9.464844 L 15.660156 9.480469 L 15.660156 9.464844 C 15.644531 9.464844 15.636719 9.460938 15.621094 9.472656 C 15.601562 9.460938 15.601562 9.457031 15.578125 9.457031 L 15.585938 9.484375 L 15.554688 9.460938 L 15.554688 9.488281 C 15.539062 9.472656 15.539062 9.464844 15.515625 9.460938 L 15.542969 9.527344 C 15.542969 9.527344 15.535156 9.542969 15.535156 9.542969 C 15.507812 9.574219 15.515625 9.628906 15.523438 9.660156 C 15.539062 9.722656 15.527344 9.742188 15.527344 9.792969 C 15.53125 9.828125 15.546875 9.84375 15.542969 9.898438 C 15.542969 9.921875 15.53125 9.984375 15.523438 10.003906 L 15.503906 10.035156 C 15.503906 10.035156 15.488281 10.074219 15.488281 10.074219 C 15.480469 10.089844 15.46875 10.105469 15.460938 10.125 C 15.457031 10.148438 15.46875 10.15625 15.476562 10.164062 C 15.492188 10.195312 15.464844 10.191406 15.511719 10.230469 L 15.496094 10.253906 L 15.515625 10.25 C 15.511719 10.289062 15.539062 10.3125 15.574219 10.296875 C 15.601562 10.285156 15.628906 10.246094 15.632812 10.21875 L 15.644531 10.214844 L 15.734375 10.324219 C 15.75 10.335938 15.757812 10.363281 15.78125 10.363281 C 15.804688 10.363281 15.808594 10.339844 15.816406 10.320312 C 15.824219 10.308594 15.832031 10.300781 15.84375 10.285156 C 15.851562 10.257812 15.820312 10.21875 15.816406 10.191406 C 15.816406 10.167969 15.832031 10.15625 15.832031 10.128906 C 15.820312 10.089844 15.789062 10.085938 15.769531 10.070312 C 15.746094 10.050781 15.742188 10.03125 15.734375 10.003906 C 15.71875 9.945312 15.75 9.921875 15.746094 9.875 C 15.746094 9.839844 15.722656 9.824219 15.71875 9.800781 C 15.714844 9.785156 15.714844 9.769531 15.734375 9.765625 C 15.769531 9.75 15.78125 9.792969 15.785156 9.820312 L 15.789062 9.875 C 15.789062 9.898438 15.78125 9.917969 15.789062 9.941406 C 15.800781 9.960938 15.816406 9.976562 15.824219 9.988281 C 15.839844 10.003906 15.84375 10.019531 15.859375 10.027344 C 15.871094 10.03125 15.875 10.03125 15.886719 10.03125 C 15.898438 10.035156 15.914062 10.035156 15.921875 10.035156 C 15.949219 10.023438 15.972656 9.964844 15.996094 9.945312 C 16.007812 9.929688 16.03125 9.929688 16.046875 9.925781 C 16.042969 9.945312 16.019531 9.976562 16.011719 9.992188 C 15.992188 10.007812 15.957031 10.019531 15.957031 10.054688 C 15.953125 10.097656 16.011719 10.085938 16.015625 10.125 C 16.019531 10.152344 15.96875 10.125 15.960938 10.160156 C 15.949219 10.195312 15.976562 10.210938 15.988281 10.234375 C 15.992188 10.25 15.984375 10.269531 15.984375 10.289062 C 15.964844 10.332031 15.941406 10.308594 15.910156 10.332031 C 15.886719 10.347656 15.863281 10.394531 15.835938 10.40625 C 15.816406 10.414062 15.796875 10.402344 15.777344 10.40625 C 15.757812 10.410156 15.742188 10.449219 15.703125 10.425781 C 15.660156 10.394531 15.699219 10.371094 15.6875 10.339844 L 15.65625 10.289062 C 15.625 10.3125 15.597656 10.34375 15.617188 10.382812 C 15.636719 10.417969 15.675781 10.441406 15.660156 10.472656 C 15.648438 10.488281 15.613281 10.496094 15.589844 10.515625 C 15.5625 10.539062 15.535156 10.601562 15.527344 10.609375 C 15.511719 10.625 15.496094 10.628906 15.484375 10.640625 L 15.433594 10.703125 C 15.429688 10.710938 15.429688 10.710938 15.425781 10.714844 C 15.425781 10.714844 15.351562 10.707031 15.351562 10.707031 L 15.363281 10.742188 C 15.335938 10.75 15.335938 10.75 15.3125 10.75 C 15.292969 10.746094 15.257812 10.75 15.253906 10.773438 C 15.246094 10.792969 15.292969 10.796875 15.308594 10.800781 C 15.382812 10.820312 15.40625 10.894531 15.378906 10.929688 C 15.363281 10.949219 15.324219 10.941406 15.300781 10.941406 C 15.25 10.941406 15.164062 10.933594 15.113281 10.9375 C 15.046875 10.953125 15.074219 10.992188 15.066406 11.027344 C 15.066406 11.050781 15.046875 11.066406 15.046875 11.082031 C 15.042969 11.089844 15.042969 11.09375 15.042969 11.101562 C 15.042969 11.09375 15.070312 11.160156 15.070312 11.15625 C 15.082031 11.175781 15.121094 11.167969 15.144531 11.167969 C 15.171875 11.171875 15.183594 11.183594 15.210938 11.195312 C 15.234375 11.203125 15.242188 11.191406 15.265625 11.183594 C 15.3125 11.171875 15.363281 11.1875 15.433594 11.136719 C 15.449219 11.128906 15.464844 11.113281 15.464844 11.101562 C 15.476562 11.082031 15.46875 11.070312 15.488281 11.046875 C 15.507812 11.019531 15.558594 11.003906 15.582031 10.980469 C 15.597656 10.960938 15.582031 10.929688 15.617188 10.910156 C 15.640625 10.902344 15.675781 10.914062 15.710938 10.894531 C 15.742188 10.882812 15.773438 10.84375 15.804688 10.828125 C 15.839844 10.820312 15.863281 10.855469 15.914062 10.859375 L 16.101562 10.871094 C 16.109375 10.871094 16.121094 10.875 16.128906 10.878906 C 16.183594 10.910156 16.113281 10.9375 16.085938 10.949219 C 16.066406 10.957031 16.0625 10.960938 16.039062 10.964844 C 16.046875 10.96875 16.046875 10.972656 16.054688 10.976562 C 16.078125 10.984375 16.136719 10.980469 16.15625 10.960938 C 16.164062 10.945312 16.160156 10.9375 16.15625 10.921875 C 16.175781 10.910156 16.1875 10.902344 16.191406 10.878906 C 16.1875 10.863281 16.179688 10.847656 16.191406 10.832031 C 16.199219 10.820312 16.222656 10.816406 16.238281 10.8125 C 16.210938 10.785156 16.191406 10.800781 16.15625 10.804688 C 16.136719 10.800781 16.128906 10.792969 16.113281 10.792969 C 16.09375 10.796875 16.082031 10.808594 16.054688 10.804688 C 16.039062 10.804688 16.019531 10.792969 16 10.789062 C 15.980469 10.78125 15.933594 10.78125 15.933594 10.753906 C 15.9375 10.742188 15.941406 10.738281 15.949219 10.734375 C 15.953125 10.726562 15.960938 10.726562 15.964844 10.726562 L 15.976562 10.746094 C 16.035156 10.714844 16.019531 10.746094 16.070312 10.746094 C 16.117188 10.75 16.171875 10.726562 16.21875 10.738281 C 16.25 10.742188 16.242188 10.761719 16.273438 10.78125 C 16.308594 10.800781 16.351562 10.785156 16.386719 10.777344 C 16.382812 10.785156 16.378906 10.785156 16.378906 10.789062 C 16.375 10.808594 16.386719 10.816406 16.398438 10.820312 C 16.445312 10.835938 16.5 10.78125 16.445312 10.765625 L 16.523438 10.710938 C 16.480469 10.699219 16.460938 10.722656 16.402344 10.695312 C 16.429688 10.691406 16.4375 10.6875 16.453125 10.667969 L 16.453125 10.644531 L 16.539062 10.585938 C 16.515625 10.636719 16.546875 10.617188 16.5625 10.664062 C 16.59375 10.65625 16.628906 10.660156 16.65625 10.65625 C 16.675781 10.644531 16.734375 10.613281 16.746094 10.601562 C 16.761719 10.585938 16.761719 10.566406 16.777344 10.554688 L 16.835938 10.519531 C 16.859375 10.496094 16.878906 10.46875 16.894531 10.445312 C 16.902344 10.429688 16.910156 10.417969 16.929688 10.417969 C 16.953125 10.425781 16.964844 10.476562 16.972656 10.496094 C 16.980469 10.511719 16.992188 10.53125 16.996094 10.546875 C 17.003906 10.617188 16.925781 10.640625 16.886719 10.683594 C 16.859375 10.714844 16.839844 10.757812 16.808594 10.773438 C 16.769531 10.8125 16.65625 10.871094 16.605469 10.894531 L 16.492188 10.929688 C 16.46875 10.949219 16.441406 10.976562 16.433594 11 C 16.429688 11.023438 16.445312 11.046875 16.421875 11.066406 C 16.394531 11.082031 16.289062 11.113281 16.257812 11.113281 C 16.210938 11.113281 16.226562 11.097656 16.160156 11.113281 C 16.097656 11.128906 16.035156 11.148438 15.96875 11.148438 C 15.976562 11.132812 15.992188 11.109375 15.996094 11.089844 C 15.996094 11.078125 15.992188 11.074219 15.988281 11.066406 C 15.988281 11.058594 15.984375 11.050781 15.976562 11.046875 C 15.960938 11.03125 15.917969 11.042969 15.902344 11.046875 C 15.863281 11.058594 15.871094 11.070312 15.8125 11.082031 L 15.609375 11.136719 C 15.511719 11.160156 15.433594 11.210938 15.394531 11.21875 C 15.367188 11.226562 15.304688 11.230469 15.273438 11.226562 C 15.25 11.21875 15.222656 11.203125 15.199219 11.21875 C 15.171875 11.230469 15.164062 11.253906 15.136719 11.273438 C 15.105469 11.292969 15.042969 11.304688 15.011719 11.335938 C 14.976562 11.367188 15 11.382812 14.960938 11.410156 C 14.9375 11.417969 14.867188 11.429688 14.839844 11.4375 C 14.777344 11.445312 14.75 11.476562 14.699219 11.503906 L 14.640625 11.535156 C 14.621094 11.542969 14.578125 11.558594 14.570312 11.578125 C 14.5625 11.597656 14.578125 11.613281 14.582031 11.628906 C 14.585938 11.644531 14.585938 11.664062 14.585938 11.679688 C 14.5625 11.722656 14.488281 11.769531 14.511719 11.824219 C 14.523438 11.859375 14.550781 11.859375 14.597656 11.890625 C 14.660156 11.933594 14.714844 12.007812 14.78125 12.039062 C 14.867188 12.082031 14.992188 12.132812 15.09375 12.136719 C 15.09375 12.136719 15.265625 12.117188 15.265625 12.117188 C 15.355469 12.113281 15.429688 12.125 15.523438 12.109375 L 15.730469 12.042969 C 15.773438 12.035156 15.839844 12.011719 15.886719 12.019531 C 15.9375 12.023438 15.949219 12.054688 16.03125 12.035156 L 16.148438 12.003906 C 16.171875 11.992188 16.191406 11.980469 16.226562 11.988281 C 16.300781 12.015625 16.191406 12.105469 16.25 12.140625 C 16.285156 12.160156 16.390625 12.152344 16.433594 12.160156 C 16.460938 12.15625 16.558594 12.191406 16.578125 12.207031 C 16.59375 12.214844 16.59375 12.226562 16.609375 12.242188 C 16.625 12.253906 16.65625 12.257812 16.660156 12.273438 C 16.664062 12.289062 16.632812 12.324219 16.625 12.335938 C 16.597656 12.371094 16.546875 12.457031 16.589844 12.496094 C 16.601562 12.507812 16.640625 12.515625 16.660156 12.523438 L 16.828125 12.546875 C 16.902344 12.5625 16.917969 12.613281 16.964844 12.636719 C 16.996094 12.652344 17.046875 12.640625 17.085938 12.636719 L 17.257812 12.652344 C 17.320312 12.660156 17.300781 12.699219 17.347656 12.699219 C 17.445312 12.691406 17.582031 12.589844 17.65625 12.527344 L 17.804688 12.425781 C 17.863281 12.382812 17.917969 12.339844 17.96875 12.292969 C 18.066406 12.199219 18.140625 12.082031 18.179688 11.953125 C 18.195312 11.917969 18.238281 11.828125 18.238281 11.808594 C 18.238281 11.773438 18.199219 11.761719 18.210938 11.730469 C 18.222656 11.6875 18.289062 11.625 18.300781 11.574219 C 18.3125 11.550781 18.300781 11.515625 18.277344 11.503906 C 18.25 11.496094 18.238281 11.511719 18.1875 11.507812 C 18.210938 11.414062 18.261719 11.316406 18.304688 11.230469 C 18.324219 11.191406 18.359375 11.121094 18.355469 11.078125 C 18.347656 11.03125 18.300781 11.035156 18.28125 11.019531 C 18.261719 11.007812 18.261719 10.996094 18.25 10.992188 C 18.226562 10.984375 18.191406 11.011719 18.167969 11.011719 C 18.152344 11.015625 18.136719 11.007812 18.125 11.003906 C 18.105469 10.996094 18.085938 11.007812 18.066406 11.011719 C 18.03125 10.941406 18.066406 10.800781 18.082031 10.722656 C 18.109375 10.5625 18.15625 10.394531 18.109375 10.234375 C 18.109375 10.234375 18.066406 10.109375 18.066406 10.109375 C 18.054688 10.097656 18.039062 10.078125 18.019531 10.085938 C 17.988281 10.101562 17.972656 10.199219 17.960938 10.230469 L 17.902344 10.371094 C 17.890625 10.402344 17.882812 10.441406 17.859375 10.46875 C 17.839844 10.492188 17.8125 10.507812 17.785156 10.527344 C 17.773438 10.5 17.757812 10.511719 17.738281 10.519531 L 17.644531 10.585938 C 17.625 10.601562 17.585938 10.640625 17.558594 10.644531 C 17.539062 10.652344 17.523438 10.636719 17.492188 10.648438 C 17.46875 10.65625 17.433594 10.675781 17.414062 10.671875 C 17.390625 10.671875 17.363281 10.65625 17.339844 10.65625 C 17.320312 10.65625 17.289062 10.667969 17.277344 10.675781 C 17.21875 10.691406 17.128906 10.679688 17.070312 10.675781 C 17.078125 10.667969 17.089844 10.664062 17.089844 10.65625 C 17.09375 10.625 17.042969 10.585938 17.09375 10.5625 L 17.210938 10.542969 L 17.265625 10.523438 C 17.292969 10.523438 17.304688 10.539062 17.34375 10.527344 C 17.34375 10.527344 17.476562 10.476562 17.476562 10.476562 C 17.53125 10.464844 17.558594 10.511719 17.613281 10.464844 C 17.65625 10.429688 17.683594 10.316406 17.695312 10.261719 L 17.726562 10.136719 L 17.734375 10.054688 C 17.75 9.988281 17.765625 9.957031 17.746094 9.890625 L 17.722656 9.789062 C 17.710938 9.746094 17.695312 9.71875 17.65625 9.765625 C 17.625 9.804688 17.617188 9.847656 17.558594 9.847656 C 17.554688 9.917969 17.574219 10 17.511719 10.050781 C 17.488281 10.070312 17.457031 10.066406 17.433594 10.078125 C 17.417969 10.089844 17.398438 10.105469 17.386719 10.101562 C 17.367188 10.105469 17.355469 10.097656 17.351562 10.082031 C 17.351562 10.058594 17.386719 10.039062 17.402344 10.03125 C 17.453125 10 17.480469 9.988281 17.511719 9.9375 C 17.53125 9.898438 17.53125 9.871094 17.546875 9.839844 C 17.5625 9.816406 17.582031 9.816406 17.597656 9.789062 C 17.609375 9.769531 17.628906 9.710938 17.640625 9.683594 L 17.683594 9.480469 C 17.707031 9.417969 17.761719 9.402344 17.765625 9.328125 L 17.777344 9.351562 C 17.832031 9.316406 17.824219 9.265625 17.808594 9.210938 C 17.839844 9.203125 17.910156 9.199219 17.933594 9.1875 L 18.050781 9.09375 C 18.082031 9.070312 18.128906 9.027344 18.128906 8.992188 C 18.136719 8.96875 18.089844 8.902344 18.074219 8.890625 C 18.066406 8.878906 18.058594 8.875 18.046875 8.871094 C 18.015625 8.867188 17.980469 8.882812 17.953125 8.851562 C 17.925781 8.824219 17.878906 8.722656 17.851562 8.683594 C 17.792969 8.582031 17.792969 8.605469 17.765625 8.566406 C 17.746094 8.542969 17.746094 8.515625 17.738281 8.488281 C 17.726562 8.46875 17.710938 8.457031 17.710938 8.445312 C 17.703125 8.421875 17.71875 8.410156 17.730469 8.390625 C 17.75 8.347656 17.742188 8.316406 17.761719 8.289062 C 17.78125 8.265625 17.800781 8.273438 17.808594 8.253906 C 17.835938 8.203125 17.746094 8.179688 17.769531 8.125 C 17.78125 8.101562 17.8125 8.054688 17.84375 8.046875 C 17.863281 8.035156 17.882812 8.042969 17.902344 8.03125 C 17.921875 8.015625 17.917969 7.980469 17.921875 7.957031 C 17.9375 7.894531 17.972656 7.894531 17.96875 7.816406 C 17.96875 7.789062 17.964844 7.75 17.949219 7.730469 C 17.917969 7.707031 17.886719 7.734375 17.878906 7.757812 C 17.863281 7.789062 17.875 7.828125 17.882812 7.859375 C 17.882812 7.890625 17.882812 7.9375 17.867188 7.96875 C 17.851562 8.011719 17.796875 7.988281 17.78125 7.972656 C 17.773438 7.960938 17.777344 7.949219 17.773438 7.941406 C 17.769531 7.898438 17.753906 7.882812 17.757812 7.832031 C 17.757812 7.808594 17.769531 7.746094 17.761719 7.738281 C 17.757812 7.722656 17.699219 7.671875 17.683594 7.660156 C 17.65625 7.640625 17.601562 7.589844 17.5625 7.621094 C 17.527344 7.644531 17.546875 7.714844 17.542969 7.753906 C 17.542969 7.769531 17.539062 7.804688 17.523438 7.808594 C 17.515625 7.816406 17.492188 7.804688 17.480469 7.796875 C 17.445312 7.769531 17.421875 7.753906 17.410156 7.707031 C 17.429688 7.707031 17.476562 7.714844 17.476562 7.691406 C 17.472656 7.671875 17.441406 7.640625 17.417969 7.644531 C 17.394531 7.644531 17.394531 7.667969 17.359375 7.652344 C 17.332031 7.636719 17.265625 7.554688 17.238281 7.53125 C 17.199219 7.496094 17.144531 7.46875 17.09375 7.453125 C 17.0625 7.449219 16.964844 7.425781 16.941406 7.449219 C 16.929688 7.457031 16.933594 7.472656 16.933594 7.484375 C 16.925781 7.480469 16.917969 7.476562 16.90625 7.476562 C 16.867188 7.476562 16.859375 7.523438 16.863281 7.550781 C 16.863281 7.5625 16.871094 7.582031 16.855469 7.589844 C 16.839844 7.601562 16.824219 7.59375 16.8125 7.585938 C 16.777344 7.570312 16.777344 7.5625 16.734375 7.558594 C 16.746094 7.578125 16.757812 7.597656 16.773438 7.613281 C 16.8125 7.652344 16.832031 7.644531 16.835938 7.699219 C 16.785156 7.691406 16.730469 7.675781 16.691406 7.644531 L 16.734375 7.625 L 16.730469 7.613281 C 16.710938 7.605469 16.644531 7.574219 16.640625 7.550781 C 16.636719 7.535156 16.65625 7.53125 16.652344 7.515625 C 16.65625 7.496094 16.636719 7.492188 16.640625 7.46875 C 16.652344 7.449219 16.683594 7.429688 16.679688 7.410156 C 16.675781 7.398438 16.664062 7.390625 16.648438 7.386719 C 16.625 7.378906 16.578125 7.355469 16.554688 7.382812 C 16.535156 7.402344 16.558594 7.4375 16.554688 7.488281 C 16.535156 7.488281 16.503906 7.476562 16.484375 7.476562 C 16.460938 7.476562 16.4375 7.492188 16.40625 7.484375 C 16.363281 7.476562 16.34375 7.449219 16.308594 7.4375 C 16.238281 7.421875 16.1875 7.445312 16.125 7.464844 C 16.097656 7.472656 16.054688 7.480469 16.03125 7.5 C 16.011719 7.515625 16.003906 7.53125 15.996094 7.550781 C 15.976562 7.582031 15.929688 7.605469 15.9375 7.648438 C 15.953125 7.683594 15.988281 7.679688 16 7.6875 L 16.046875 7.75 C 16.011719 7.765625 15.992188 7.757812 15.957031 7.765625 C 15.957031 7.765625 15.828125 7.8125 15.828125 7.8125 C 15.761719 7.820312 15.734375 7.789062 15.691406 7.777344 C 15.667969 7.773438 15.648438 7.773438 15.628906 7.769531 C 15.609375 7.757812 15.605469 7.742188 15.597656 7.738281 C 15.585938 7.722656 15.527344 7.726562 15.511719 7.730469 C 15.511719 7.742188 15.515625 7.746094 15.503906 7.757812 C 15.5 7.777344 15.453125 7.808594 15.433594 7.816406 C 15.421875 7.824219 15.40625 7.820312 15.390625 7.820312 L 15.390625 7.796875 C 15.390625 7.769531 15.375 7.773438 15.355469 7.78125 C 15.320312 7.796875 15.304688 7.820312 15.28125 7.84375 C 15.289062 7.824219 15.292969 7.800781 15.308594 7.78125 C 15.324219 7.761719 15.351562 7.75 15.375 7.734375 L 15.453125 7.671875 C 15.472656 7.65625 15.503906 7.636719 15.515625 7.621094 C 15.558594 7.578125 15.554688 7.464844 15.53125 7.40625 C 15.449219 7.453125 15.472656 7.453125 15.421875 7.496094 C 15.402344 7.511719 15.390625 7.511719 15.375 7.523438 C 15.359375 7.535156 15.359375 7.554688 15.359375 7.570312 Z M 15.921875 7.289062 L 15.984375 7.320312 L 16.035156 7.386719 C 16.066406 7.367188 16.070312 7.355469 16.089844 7.34375 C 16.097656 7.335938 16.171875 7.34375 16.148438 7.304688 C 16.140625 7.300781 16.136719 7.296875 16.128906 7.292969 L 16.128906 7.308594 C 16.105469 7.296875 16.078125 7.28125 16.054688 7.273438 C 16.03125 7.269531 15.949219 7.28125 15.921875 7.289062 Z M 16.117188 7.289062 C 16.195312 7.269531 16.175781 7.253906 16.222656 7.242188 C 16.242188 7.230469 16.277344 7.234375 16.300781 7.234375 L 16.300781 7.257812 C 16.351562 7.269531 16.34375 7.242188 16.378906 7.246094 C 16.417969 7.253906 16.445312 7.289062 16.503906 7.300781 C 16.53125 7.304688 16.542969 7.308594 16.5625 7.292969 C 16.578125 7.308594 16.582031 7.308594 16.605469 7.304688 C 16.605469 7.277344 16.621094 7.265625 16.609375 7.253906 C 16.601562 7.238281 16.539062 7.222656 16.539062 7.277344 C 16.515625 7.257812 16.527344 7.25 16.519531 7.234375 C 16.496094 7.210938 16.453125 7.214844 16.429688 7.226562 C 16.410156 7.175781 16.417969 7.191406 16.335938 7.164062 C 16.308594 7.15625 16.253906 7.140625 16.226562 7.140625 C 16.191406 7.144531 16.183594 7.167969 16.160156 7.183594 C 16.148438 7.203125 16.128906 7.203125 16.117188 7.214844 C 16.101562 7.234375 16.109375 7.269531 16.117188 7.289062 Z M 17.265625 6.882812 L 17.34375 6.949219 C 17.375 6.980469 17.40625 7.011719 17.445312 7.035156 C 17.472656 7.050781 17.507812 7.0625 17.539062 7.046875 C 17.5625 7.039062 17.617188 6.964844 17.558594 6.941406 C 17.539062 6.9375 17.515625 6.953125 17.5 6.957031 C 17.496094 6.917969 17.488281 6.898438 17.476562 6.863281 C 17.472656 6.851562 17.464844 6.832031 17.445312 6.839844 C 17.421875 6.859375 17.464844 6.933594 17.417969 6.914062 L 17.398438 6.90625 L 17.378906 6.894531 C 17.363281 6.921875 17.386719 6.925781 17.410156 6.945312 C 17.4375 6.960938 17.457031 6.976562 17.464844 7.007812 C 17.398438 6.980469 17.390625 6.949219 17.347656 6.910156 C 17.316406 6.886719 17.296875 6.875 17.265625 6.882812 Z M 17.5 6.796875 C 17.519531 6.828125 17.589844 6.902344 17.632812 6.910156 C 17.597656 6.867188 17.554688 6.804688 17.5 6.796875 Z M 13.417969 7.78125 L 13.46875 7.769531 L 13.617188 7.789062 C 13.660156 7.792969 13.699219 7.789062 13.730469 7.820312 C 13.660156 7.835938 13.675781 7.820312 13.613281 7.820312 C 13.5625 7.820312 13.546875 7.832031 13.507812 7.835938 C 13.484375 7.835938 13.472656 7.835938 13.453125 7.832031 L 13.308594 7.878906 C 13.269531 7.882812 13.257812 7.855469 13.230469 7.851562 C 13.207031 7.839844 13.183594 7.851562 13.164062 7.867188 C 13.128906 7.886719 13.097656 7.917969 13.0625 7.945312 C 13 8 12.929688 8.0625 12.886719 8.132812 C 12.859375 8.183594 12.871094 8.207031 12.84375 8.257812 C 12.816406 8.304688 12.738281 8.355469 12.695312 8.433594 C 12.664062 8.488281 12.671875 8.519531 12.660156 8.542969 C 12.652344 8.554688 12.585938 8.601562 12.570312 8.613281 C 12.558594 8.621094 12.539062 8.625 12.53125 8.632812 C 12.515625 8.648438 12.507812 8.664062 12.503906 8.683594 L 12.457031 8.75 C 12.445312 8.773438 12.398438 8.867188 12.398438 8.890625 C 12.402344 8.929688 12.46875 8.9375 12.441406 8.992188 L 12.429688 9.011719 C 12.394531 9.042969 12.378906 9.007812 12.351562 9.007812 C 12.316406 9.003906 12.269531 9.054688 12.234375 9.035156 C 12.214844 9.015625 12.21875 8.988281 12.210938 8.96875 C 12.199219 8.941406 12.1875 8.933594 12.175781 8.914062 C 12.160156 8.890625 12.164062 8.839844 12.117188 8.792969 C 12.089844 8.765625 12.066406 8.761719 12.054688 8.804688 C 12.054688 8.804688 12.046875 8.839844 12.046875 8.839844 C 12.015625 8.796875 12.023438 8.753906 11.980469 8.753906 C 11.929688 8.753906 11.921875 8.816406 11.898438 8.855469 C 11.835938 8.953125 11.820312 8.945312 11.769531 8.996094 L 11.703125 9.085938 L 11.660156 9.121094 C 11.640625 9.152344 11.628906 9.203125 11.621094 9.238281 L 11.597656 9.460938 C 11.589844 9.507812 11.582031 9.582031 11.535156 9.605469 C 11.519531 9.613281 11.46875 9.617188 11.449219 9.617188 C 11.429688 9.609375 11.414062 9.597656 11.398438 9.597656 C 11.378906 9.601562 11.335938 9.609375 11.292969 9.597656 C 11.265625 9.582031 11.226562 9.546875 11.203125 9.542969 C 11.175781 9.535156 11.15625 9.542969 11.132812 9.546875 C 11.105469 9.550781 11.066406 9.5625 11.042969 9.5625 C 10.984375 9.554688 10.933594 9.476562 10.90625 9.433594 C 10.894531 9.414062 10.875 9.382812 10.855469 9.375 C 10.828125 9.359375 10.804688 9.398438 10.773438 9.394531 C 10.75 9.394531 10.691406 9.351562 10.660156 9.34375 C 10.652344 9.339844 10.632812 9.328125 10.621094 9.335938 C 10.613281 9.339844 10.613281 9.359375 10.609375 9.371094 C 10.613281 9.414062 10.628906 9.425781 10.65625 9.449219 C 10.664062 9.453125 10.6875 9.472656 10.671875 9.484375 C 10.648438 9.507812 10.601562 9.429688 10.578125 9.476562 C 10.574219 9.488281 10.574219 9.492188 10.570312 9.5 L 10.558594 9.5 L 10.519531 9.414062 L 10.511719 9.378906 L 10.460938 9.300781 L 10.421875 9.347656 L 10.402344 9.304688 L 10.382812 9.269531 C 10.371094 9.242188 10.347656 9.25 10.328125 9.265625 C 10.292969 9.300781 10.269531 9.351562 10.246094 9.375 C 10.21875 9.398438 10.191406 9.386719 10.171875 9.394531 C 10.144531 9.414062 10.132812 9.449219 10.128906 9.480469 C 10.128906 9.480469 10.113281 9.703125 10.113281 9.703125 C 10.101562 9.878906 10.082031 9.921875 10.128906 10.101562 L 10.164062 10.199219 C 10.164062 10.199219 10.207031 10.335938 10.207031 10.335938 L 10.234375 10.402344 L 10.246094 10.398438 C 10.226562 10.328125 10.210938 10.199219 10.222656 10.128906 C 10.234375 10.054688 10.265625 10.039062 10.253906 9.949219 L 10.277344 10.019531 C 10.304688 9.984375 10.296875 9.960938 10.339844 9.9375 C 10.355469 9.960938 10.363281 9.964844 10.375 9.996094 C 10.386719 10.019531 10.394531 10.039062 10.410156 10.0625 C 10.429688 10.089844 10.441406 10.089844 10.457031 10.109375 C 10.472656 10.121094 10.484375 10.148438 10.496094 10.167969 C 10.515625 10.203125 10.535156 10.257812 10.585938 10.261719 C 10.597656 10.222656 10.585938 10.175781 10.582031 10.128906 C 10.582031 10.117188 10.582031 10.085938 10.589844 10.078125 C 10.617188 10.066406 10.632812 10.113281 10.636719 10.128906 C 10.660156 10.167969 10.679688 10.21875 10.710938 10.25 C 10.746094 10.292969 10.765625 10.28125 10.8125 10.351562 C 10.8125 10.351562 10.816406 10.320312 10.816406 10.320312 C 10.835938 10.355469 10.820312 10.386719 10.867188 10.402344 C 10.863281 10.382812 10.84375 10.292969 10.851562 10.273438 C 10.855469 10.261719 10.871094 10.257812 10.882812 10.253906 L 10.933594 10.433594 C 10.9375 10.453125 10.949219 10.480469 10.964844 10.492188 C 11 10.519531 11.035156 10.488281 11.050781 10.511719 L 11.085938 10.605469 C 11.117188 10.667969 11.152344 10.75 11.191406 10.808594 C 11.222656 10.851562 11.257812 10.910156 11.300781 10.9375 C 11.316406 10.953125 11.339844 10.96875 11.359375 10.957031 C 11.378906 10.949219 11.367188 10.921875 11.371094 10.90625 C 11.371094 10.882812 11.378906 10.875 11.378906 10.859375 C 11.378906 10.832031 11.367188 10.800781 11.375 10.777344 C 11.375 10.808594 11.386719 10.8125 11.394531 10.84375 C 11.40625 10.886719 11.421875 10.933594 11.445312 10.972656 C 11.476562 11.03125 11.503906 11.085938 11.550781 11.136719 C 11.582031 11.167969 11.648438 11.203125 11.691406 11.226562 C 11.75 11.269531 11.804688 11.304688 11.871094 11.339844 L 11.953125 11.378906 L 12.019531 11.40625 C 12.074219 11.425781 12.074219 11.375 12.109375 11.367188 C 12.125 11.371094 12.191406 11.40625 12.214844 11.417969 C 12.320312 11.488281 12.285156 11.46875 12.359375 11.53125 L 12.527344 11.660156 C 12.570312 11.691406 12.625 11.75 12.679688 11.75 L 12.730469 11.746094 C 12.789062 11.75 12.859375 11.761719 12.914062 11.738281 C 12.9375 11.734375 12.953125 11.71875 12.960938 11.707031 C 12.972656 11.6875 12.976562 11.664062 13 11.65625 C 13.023438 11.65625 13.078125 11.671875 13.105469 11.679688 C 13.167969 11.695312 13.257812 11.730469 13.324219 11.734375 C 13.386719 11.734375 13.425781 11.679688 13.410156 11.640625 C 13.390625 11.601562 13.316406 11.566406 13.269531 11.503906 C 13.230469 11.453125 13.195312 11.394531 13.148438 11.351562 L 13.042969 11.257812 L 12.976562 11.183594 L 12.945312 11.152344 C 12.9375 11.144531 12.921875 11.109375 12.917969 11.089844 L 12.835938 10.949219 C 12.800781 10.902344 12.746094 10.914062 12.699219 10.847656 C 12.730469 10.875 12.785156 10.90625 12.820312 10.914062 C 12.800781 10.875 12.753906 10.8125 12.722656 10.78125 L 12.660156 10.734375 C 12.691406 10.753906 12.71875 10.769531 12.761719 10.773438 L 12.765625 10.726562 C 12.777344 10.679688 12.792969 10.671875 12.785156 10.617188 C 12.769531 10.527344 12.664062 10.40625 12.632812 10.296875 C 12.621094 10.246094 12.625 10.195312 12.625 10.148438 L 12.613281 10.058594 C 12.609375 10.042969 12.621094 10.03125 12.621094 10.007812 L 12.609375 9.949219 C 12.613281 9.914062 12.617188 9.902344 12.609375 9.871094 L 12.570312 9.785156 C 12.570312 9.785156 12.558594 9.722656 12.558594 9.722656 L 12.535156 9.636719 C 12.519531 9.574219 12.550781 9.539062 12.550781 9.496094 C 12.550781 9.472656 12.515625 9.421875 12.503906 9.414062 C 12.484375 9.40625 12.445312 9.421875 12.457031 9.390625 C 12.464844 9.359375 12.523438 9.402344 12.539062 9.414062 C 12.546875 9.359375 12.53125 9.351562 12.515625 9.304688 L 12.476562 9.167969 C 12.460938 9.132812 12.433594 9.117188 12.429688 9.101562 C 12.429688 9.085938 12.445312 9.082031 12.464844 9.054688 C 12.480469 9.027344 12.484375 9 12.484375 8.972656 L 12.472656 8.878906 C 12.472656 8.835938 12.503906 8.773438 12.550781 8.75 C 12.597656 8.734375 12.65625 8.777344 12.683594 8.769531 C 12.710938 8.761719 12.71875 8.734375 12.726562 8.714844 C 12.734375 8.695312 12.765625 8.527344 12.765625 8.527344 L 12.777344 8.523438 C 12.8125 8.566406 12.84375 8.570312 12.882812 8.601562 L 12.921875 8.628906 C 12.929688 8.632812 12.9375 8.625 12.949219 8.617188 C 12.964844 8.59375 12.976562 8.5 12.957031 8.476562 C 12.949219 8.457031 12.921875 8.441406 12.90625 8.417969 C 12.902344 8.402344 12.910156 8.382812 12.917969 8.363281 C 12.925781 8.328125 12.929688 8.289062 12.949219 8.261719 C 12.992188 8.203125 13.09375 8.179688 13.160156 8.214844 C 13.195312 8.234375 13.191406 8.25 13.207031 8.261719 C 13.230469 8.28125 13.257812 8.273438 13.269531 8.304688 C 13.273438 8.316406 13.273438 8.34375 13.273438 8.359375 C 13.28125 8.390625 13.289062 8.402344 13.28125 8.4375 C 13.265625 8.472656 13.238281 8.5 13.234375 8.542969 C 13.222656 8.589844 13.25 8.589844 13.25 8.628906 C 13.242188 8.667969 13.214844 8.703125 13.207031 8.742188 C 13.195312 8.765625 13.203125 8.789062 13.179688 8.808594 C 13.160156 8.824219 13.125 8.828125 13.101562 8.832031 C 13.070312 8.847656 13.046875 8.867188 13.023438 8.886719 C 13.023438 8.894531 13.027344 8.90625 13.035156 8.914062 C 13.050781 8.945312 13.078125 8.941406 13.101562 8.929688 C 13.144531 8.914062 13.199219 8.871094 13.25 8.898438 C 13.289062 8.929688 13.316406 9.027344 13.351562 9.058594 C 13.386719 9.078125 13.410156 9.074219 13.445312 9.078125 C 13.46875 9.082031 13.488281 9.089844 13.511719 9.101562 C 13.558594 9.128906 13.546875 9.160156 13.570312 9.179688 C 13.589844 9.191406 13.605469 9.183594 13.628906 9.203125 L 13.730469 9.316406 L 13.777344 9.261719 C 13.800781 9.277344 13.824219 9.273438 13.820312 9.246094 C 13.816406 9.230469 13.804688 9.199219 13.792969 9.183594 C 13.835938 9.214844 13.84375 9.242188 13.851562 9.289062 C 13.851562 9.300781 13.851562 9.3125 13.859375 9.320312 C 13.863281 9.339844 13.898438 9.378906 13.917969 9.390625 C 13.941406 9.402344 13.957031 9.390625 13.976562 9.375 C 13.992188 9.34375 13.996094 9.292969 14.023438 9.253906 C 14.042969 9.222656 14.09375 9.207031 14.128906 9.148438 C 14.117188 9.144531 14.078125 9.136719 14.082031 9.117188 C 14.085938 9.09375 14.121094 9.085938 14.140625 9.070312 C 14.167969 9.042969 14.1875 9 14.1875 8.960938 C 14.1875 8.960938 14.117188 8.964844 14.117188 8.964844 L 14.078125 8.964844 L 14.023438 8.976562 L 13.960938 8.945312 C 13.960938 8.945312 13.882812 8.953125 13.882812 8.953125 C 13.890625 8.921875 13.898438 8.90625 13.929688 8.898438 C 13.949219 8.894531 13.972656 8.898438 13.980469 8.890625 C 14.003906 8.878906 13.996094 8.859375 14.011719 8.84375 C 14.035156 8.804688 14.078125 8.789062 14.078125 8.746094 C 14.125 8.746094 14.136719 8.734375 14.160156 8.734375 C 14.207031 8.746094 14.234375 8.820312 14.261719 8.859375 C 14.199219 8.851562 14.21875 8.898438 14.222656 8.9375 C 14.242188 8.921875 14.261719 8.886719 14.28125 8.878906 L 14.355469 8.867188 C 14.371094 8.863281 14.375 8.855469 14.390625 8.847656 C 14.429688 8.832031 14.457031 8.851562 14.484375 8.882812 C 14.503906 8.867188 14.5 8.855469 14.484375 8.835938 L 14.511719 8.832031 L 14.488281 8.789062 C 14.460938 8.796875 14.453125 8.792969 14.449219 8.820312 C 14.425781 8.8125 14.425781 8.8125 14.394531 8.8125 L 14.414062 8.792969 L 14.410156 8.78125 C 14.359375 8.765625 14.410156 8.742188 14.417969 8.710938 C 14.417969 8.695312 14.410156 8.6875 14.402344 8.675781 C 14.402344 8.675781 14.46875 8.640625 14.46875 8.640625 C 14.492188 8.601562 14.523438 8.621094 14.527344 8.582031 C 14.589844 8.582031 14.558594 8.519531 14.601562 8.496094 C 14.609375 8.488281 14.628906 8.492188 14.640625 8.488281 C 14.65625 8.480469 14.671875 8.46875 14.683594 8.460938 C 14.707031 8.457031 14.71875 8.453125 14.738281 8.441406 C 14.757812 8.425781 14.773438 8.394531 14.785156 8.375 C 14.792969 8.363281 14.8125 8.34375 14.816406 8.332031 C 14.816406 8.3125 14.808594 8.300781 14.800781 8.273438 C 14.824219 8.273438 14.839844 8.269531 14.851562 8.25 C 14.867188 8.234375 14.863281 8.214844 14.835938 8.207031 L 14.808594 8.214844 L 14.878906 8.136719 L 14.882812 8.070312 L 14.863281 8.082031 C 14.863281 8.082031 14.867188 8.046875 14.867188 8.046875 L 14.804688 8.058594 L 14.847656 7.996094 C 14.871094 7.972656 14.898438 7.972656 14.90625 7.9375 C 14.855469 7.953125 14.792969 8.011719 14.765625 8.058594 L 14.71875 8.136719 L 14.71875 8.113281 C 14.667969 8.136719 14.675781 8.167969 14.65625 8.183594 L 14.644531 8.191406 C 14.664062 8.1875 14.550781 8.207031 14.570312 8.210938 C 14.539062 8.210938 14.503906 8.191406 14.476562 8.175781 C 14.457031 8.164062 14.441406 8.148438 14.421875 8.164062 L 14.308594 8.101562 C 14.316406 8.089844 14.320312 8.082031 14.304688 8.074219 C 14.292969 8.066406 14.261719 8.0625 14.234375 8.054688 C 14.1875 8.023438 14.183594 7.992188 14.171875 7.945312 C 14.164062 7.902344 14.15625 7.902344 14.136719 7.871094 C 14.125 7.855469 14.125 7.84375 14.109375 7.832031 C 14.09375 7.820312 14.0625 7.804688 14.039062 7.792969 C 14.011719 7.777344 13.980469 7.757812 13.949219 7.757812 C 13.910156 7.757812 13.878906 7.785156 13.84375 7.78125 C 13.816406 7.777344 13.773438 7.75 13.734375 7.742188 C 13.710938 7.742188 13.683594 7.746094 13.660156 7.75 C 13.660156 7.742188 13.652344 7.71875 13.640625 7.71875 C 13.621094 7.710938 13.589844 7.730469 13.570312 7.734375 C 13.546875 7.738281 13.539062 7.726562 13.519531 7.722656 C 13.503906 7.722656 13.421875 7.734375 13.414062 7.746094 C 13.40625 7.753906 13.414062 7.769531 13.417969 7.78125 Z M 17.332031 6.648438 C 17.386719 6.699219 17.476562 6.761719 17.546875 6.761719 C 17.523438 6.734375 17.507812 6.734375 17.480469 6.714844 C 17.4375 6.699219 17.371094 6.660156 17.332031 6.648438 Z M 16.855469 6.5 C 16.855469 6.5 16.839844 6.476562 16.839844 6.476562 C 16.863281 6.480469 16.886719 6.484375 16.902344 6.503906 C 16.914062 6.519531 16.917969 6.53125 16.921875 6.546875 C 16.929688 6.578125 16.996094 6.640625 17.03125 6.636719 C 17.042969 6.640625 17.042969 6.632812 17.054688 6.632812 L 17.011719 6.53125 C 16.996094 6.515625 16.980469 6.527344 16.957031 6.507812 C 16.957031 6.507812 16.824219 6.394531 16.824219 6.394531 C 16.816406 6.386719 16.785156 6.359375 16.785156 6.34375 C 16.792969 6.328125 16.824219 6.324219 16.832031 6.320312 C 16.832031 6.320312 16.714844 6.242188 16.714844 6.242188 C 16.699219 6.234375 16.679688 6.21875 16.65625 6.226562 C 16.636719 6.238281 16.632812 6.265625 16.625 6.285156 C 16.617188 6.304688 16.605469 6.324219 16.609375 6.339844 C 16.621094 6.359375 16.648438 6.378906 16.664062 6.394531 L 16.773438 6.457031 C 16.804688 6.476562 16.820312 6.492188 16.855469 6.5 Z M 18.304688 6.28125 C 18.277344 6.203125 18.210938 6.132812 18.140625 6.085938 L 18.03125 6.019531 C 17.988281 5.988281 17.9375 5.925781 17.875 5.882812 C 17.804688 5.84375 17.757812 5.839844 17.695312 5.808594 C 17.695312 5.808594 17.59375 5.742188 17.59375 5.742188 C 17.59375 5.742188 17.40625 5.636719 17.40625 5.636719 C 17.359375 5.609375 17.300781 5.5625 17.261719 5.527344 C 17.222656 5.484375 17.230469 5.464844 17.207031 5.449219 C 17.191406 5.4375 17.140625 5.425781 17.117188 5.425781 L 17.125 5.402344 L 17.082031 5.390625 C 17.097656 5.339844 17.066406 5.359375 17.027344 5.324219 C 17.011719 5.308594 17.007812 5.289062 16.984375 5.261719 C 16.945312 5.230469 16.898438 5.207031 16.855469 5.191406 L 16.636719 5.113281 C 16.566406 5.089844 16.46875 5.058594 16.394531 5.0625 C 16.339844 5.070312 16.304688 5.105469 16.253906 5.125 C 16.203125 5.140625 16.097656 5.15625 16.070312 5.207031 C 16.039062 5.253906 16.136719 5.3125 16.171875 5.339844 C 16.171875 5.339844 16.273438 5.410156 16.273438 5.410156 C 16.300781 5.429688 16.3125 5.445312 16.339844 5.472656 C 16.371094 5.488281 16.421875 5.507812 16.445312 5.53125 C 16.46875 5.554688 16.4375 5.566406 16.46875 5.597656 C 16.492188 5.625 16.546875 5.65625 16.566406 5.6875 C 16.578125 5.707031 16.585938 5.738281 16.605469 5.75 C 16.625 5.757812 16.644531 5.742188 16.660156 5.738281 C 16.6875 5.726562 16.761719 5.675781 16.789062 5.683594 C 16.8125 5.695312 16.90625 5.761719 16.929688 5.78125 C 16.941406 5.789062 16.972656 5.808594 16.96875 5.828125 C 16.976562 5.851562 16.886719 5.835938 16.910156 5.867188 C 16.917969 5.878906 16.976562 5.898438 16.996094 5.910156 L 17.074219 5.957031 L 17.160156 6.003906 C 17.183594 6.015625 17.207031 6.042969 17.226562 6.050781 C 17.265625 6.058594 17.277344 6.019531 17.308594 6.03125 C 17.371094 6.050781 17.425781 6.121094 17.496094 6.160156 C 17.539062 6.179688 17.550781 6.171875 17.585938 6.179688 C 17.617188 6.1875 17.640625 6.207031 17.671875 6.21875 C 17.722656 6.238281 17.726562 6.21875 17.789062 6.253906 C 17.871094 6.304688 17.941406 6.351562 18.015625 6.410156 C 18.042969 6.429688 18.113281 6.476562 18.144531 6.480469 L 18.160156 6.476562 C 18.160156 6.476562 18.21875 6.433594 18.21875 6.433594 C 18.21875 6.433594 18.222656 6.433594 18.222656 6.425781 C 18.226562 6.410156 18.21875 6.390625 18.21875 6.371094 C 18.222656 6.355469 18.230469 6.347656 18.230469 6.324219 C 18.234375 6.308594 18.226562 6.277344 18.242188 6.265625 C 18.257812 6.257812 18.289062 6.277344 18.304688 6.28125 Z M 16.746094 5.089844 C 16.742188 5.066406 16.734375 5.0625 16.722656 5.042969 C 16.683594 5.003906 16.640625 4.980469 16.585938 4.96875 C 16.570312 4.96875 16.515625 4.964844 16.507812 4.980469 C 16.496094 5.007812 16.5625 5.035156 16.582031 5.042969 C 16.601562 5.054688 16.628906 5.058594 16.648438 5.070312 C 16.6875 5.085938 16.707031 5.085938 16.746094 5.089844 Z M 14.496094 4.953125 C 14.570312 4.945312 14.597656 4.941406 14.671875 4.957031 C 14.738281 4.96875 14.78125 5 14.855469 4.992188 C 14.855469 4.992188 14.761719 4.917969 14.761719 4.917969 L 14.804688 4.882812 C 14.777344 4.867188 14.765625 4.867188 14.742188 4.855469 C 14.726562 4.847656 14.722656 4.839844 14.710938 4.832031 L 14.660156 4.84375 C 14.628906 4.855469 14.601562 4.867188 14.566406 4.886719 C 14.535156 4.898438 14.492188 4.914062 14.496094 4.953125 Z M 14.8125 4.757812 C 14.808594 4.785156 14.785156 4.796875 14.761719 4.820312 C 14.765625 4.824219 14.769531 4.828125 14.773438 4.832031 C 14.792969 4.839844 14.886719 4.839844 14.910156 4.839844 C 14.96875 4.832031 14.964844 4.800781 15.03125 4.777344 L 15.113281 4.753906 C 15.1875 4.738281 15.296875 4.71875 15.359375 4.675781 C 15.328125 4.644531 15.3125 4.648438 15.269531 4.640625 C 15.203125 4.632812 15.132812 4.636719 15.070312 4.667969 C 15.015625 4.695312 15.019531 4.714844 14.941406 4.734375 Z M 14.898438 14.070312 C 13.554688 13.988281 15.171875 14.082031 14.898438 14.070312 Z M 14.898438 14.070312 "/>
<path style=" stroke:none;fill-rule:evenodd;fill:rgb(100%,100%,100%);fill-opacity:1;" d="M 10.527344 4.238281 C 10.058594 4.46875 9.890625 4.761719 9.765625 4.996094 C 9.695312 5.128906 9.660156 5.222656 9.617188 5.402344 C 9.574219 5.582031 9.496094 5.847656 9.398438 6 C 9.503906 5.851562 9.703125 5.65625 9.828125 5.558594 C 9.953125 5.460938 10.097656 5.335938 10.175781 5.226562 C 10.335938 5 10.527344 4.734375 10.527344 4.238281 Z M 10.527344 4.238281 "/>
<path style=" stroke:none;fill-rule:evenodd;fill:rgb(100%,100%,100%);fill-opacity:1;" d="M 9.628906 13.953125 C 10.390625 13.933594 11.121094 14.089844 11.511719 14.171875 C 11.742188 14.238281 11.90625 14.273438 12.1875 14.359375 C 12.46875 14.445312 13.085938 14.601562 13.371094 14.644531 C 13.128906 14.636719 12.476562 14.597656 12.234375 14.609375 C 11.996094 14.613281 11.808594 14.621094 11.566406 14.632812 C 11.007812 14.644531 10.175781 14.425781 9.628906 13.953125 Z M 9.628906 13.953125 "/>
<path style=" stroke:none;fill-rule:evenodd;fill:rgb(100%,100%,100%);fill-opacity:1;" d="M 10.800781 12.835938 C 10.976562 13.496094 11.273438 13.8125 11.5625 14.109375 C 11.730469 14.277344 11.898438 14.390625 12.175781 14.496094 C 12.472656 14.601562 13.027344 14.640625 13.363281 14.644531 C 13.078125 14.574219 12.699219 14.476562 12.496094 14.335938 C 12.296875 14.207031 12.144531 13.992188 12.015625 13.832031 C 11.742188 13.503906 11.492188 13.183594 10.800781 12.835938 Z M 10.800781 12.835938 "/>
<path style=" stroke:none;fill-rule:evenodd;fill:rgb(100%,100%,100%);fill-opacity:1;" d="M 8.398438 12.152344 C 9.011719 12.21875 9.570312 12.617188 9.90625 12.816406 C 10.09375 12.929688 10.210938 13.042969 10.402344 13.238281 C 10.582031 13.433594 10.976562 13.773438 11.207031 13.976562 C 10.9375 13.867188 10.546875 13.621094 10.355469 13.523438 C 10.160156 13.414062 9.921875 13.335938 9.742188 13.253906 C 9.378906 13.078125 8.761719 12.75 8.398438 12.152344 Z M 8.398438 12.152344 "/>
<path style=" stroke:none;fill-rule:evenodd;fill:rgb(100%,100%,100%);fill-opacity:1;" d="M 9.894531 11.386719 C 9.84375 12.054688 9.90625 12.347656 10.054688 12.695312 C 10.140625 12.898438 10.179688 13.070312 10.347656 13.285156 C 10.515625 13.488281 10.863281 13.816406 11.191406 13.964844 C 10.914062 13.726562 10.753906 13.511719 10.671875 13.292969 C 10.597656 13.085938 10.546875 12.84375 10.503906 12.652344 C 10.410156 12.265625 10.339844 11.941406 9.894531 11.386719 Z M 9.894531 11.386719 "/>
<path style=" stroke:none;fill-rule:evenodd;fill:rgb(100%,100%,100%);fill-opacity:1;" d="M 7.816406 10.210938 C 8.355469 10.453125 8.777344 10.921875 9.046875 11.195312 C 9.199219 11.355469 9.269531 11.492188 9.417969 11.714844 C 9.566406 11.9375 9.6875 12.324219 9.816406 12.625 C 9.664062 12.347656 9.4375 12.160156 9.265625 12.023438 C 9.097656 11.882812 8.886719 11.722656 8.734375 11.597656 C 8.433594 11.339844 8.003906 10.890625 7.816406 10.210938 Z M 7.816406 10.210938 "/>
<path style=" stroke:none;fill-rule:evenodd;fill:rgb(100%,100%,100%);fill-opacity:1;" d="M 9.394531 9.695312 C 9.097656 10.289062 9.160156 10.707031 9.183594 11.09375 C 9.203125 11.367188 9.277344 11.542969 9.386719 11.789062 C 9.503906 12.058594 9.652344 12.328125 9.804688 12.605469 C 9.695312 12.339844 9.652344 12.082031 9.632812 11.867188 C 9.605469 11.648438 9.625 11.402344 9.636719 11.207031 C 9.648438 10.808594 9.671875 10.34375 9.394531 9.695312 Z M 9.394531 9.695312 "/>
<path style=" stroke:none;fill-rule:evenodd;fill:rgb(100%,100%,100%);fill-opacity:1;" d="M 7.671875 8.421875 C 8.230469 8.75 8.40625 9.089844 8.582031 9.40625 C 8.6875 9.589844 8.769531 9.886719 8.8125 10.09375 C 8.875 10.367188 8.9375 10.699219 9.015625 11 C 8.871094 10.761719 8.761719 10.476562 8.621094 10.289062 C 8.503906 10.117188 8.355469 9.875 8.246094 9.726562 C 8.03125 9.417969 7.769531 9.0625 7.671875 8.421875 Z M 7.671875 8.421875 "/>
<path style=" stroke:none;fill-rule:evenodd;fill:rgb(100%,100%,100%);fill-opacity:1;" d="M 9.398438 8.21875 C 8.949219 8.664062 8.875 9.105469 8.785156 9.449219 C 8.742188 9.644531 8.753906 9.980469 8.789062 10.164062 C 8.839844 10.410156 8.9375 10.703125 9.007812 10.988281 C 8.976562 10.726562 8.984375 10.425781 9.015625 10.214844 C 9.046875 10.015625 9.132812 9.773438 9.195312 9.601562 C 9.320312 9.257812 9.484375 8.863281 9.398438 8.21875 Z M 9.398438 8.21875 "/>
<path style=" stroke:none;fill-rule:evenodd;fill:rgb(100%,100%,100%);fill-opacity:1;" d="M 8.96875 4.851562 C 9.296875 5.367188 9.257812 5.683594 9.261719 6.015625 C 9.261719 6.203125 9.230469 6.421875 9.183594 6.648438 C 9.140625 6.871094 8.941406 7.199219 8.84375 7.46875 C 8.914062 7.117188 8.890625 6.925781 8.886719 6.730469 C 8.890625 6.539062 8.855469 6.320312 8.824219 6.152344 C 8.769531 5.8125 8.734375 5.40625 8.96875 4.851562 Z M 8.96875 4.851562 "/>
<path style=" stroke:none;fill-rule:evenodd;fill:rgb(100%,100%,100%);fill-opacity:1;" d="M 10.585938 5.488281 C 9.972656 5.636719 9.675781 5.941406 9.425781 6.171875 C 9.285156 6.308594 9.167969 6.472656 9.070312 6.679688 C 8.976562 6.898438 8.925781 7.1875 8.847656 7.445312 C 8.949219 7.222656 9.101562 6.984375 9.238281 6.855469 C 9.355469 6.738281 9.601562 6.585938 9.734375 6.472656 C 10.015625 6.226562 10.335938 6.007812 10.585938 5.488281 Z M 10.585938 5.488281 "/>
<path style=" stroke:none;fill-rule:evenodd;fill:rgb(100%,100%,100%);fill-opacity:1;" d="M 8.3125 6.398438 C 8.632812 6.898438 8.710938 7.34375 8.753906 7.707031 C 8.773438 7.867188 8.773438 8.199219 8.75 8.445312 C 8.71875 8.710938 8.695312 9 8.671875 9.296875 C 8.632812 9.03125 8.578125 8.800781 8.535156 8.59375 C 8.507812 8.457031 8.414062 8.15625 8.375 7.953125 C 8.296875 7.59375 8.144531 7.054688 8.3125 6.398438 Z M 8.3125 6.398438 "/>
<path style=" stroke:none;fill-rule:evenodd;fill:rgb(100%,100%,100%);fill-opacity:1;" d="M 9.714844 6.730469 C 9.183594 7.078125 8.957031 7.589844 8.828125 7.921875 C 8.757812 8.121094 8.730469 8.238281 8.695312 8.484375 C 8.664062 8.742188 8.660156 9.003906 8.667969 9.292969 C 8.695312 9.03125 8.800781 8.863281 8.871094 8.671875 C 8.949219 8.484375 9.164062 8.207031 9.292969 7.964844 C 9.457031 7.644531 9.644531 7.292969 9.714844 6.730469 Z M 9.714844 6.730469 "/>
<path style=" stroke:none;fill-rule:evenodd;fill:rgb(100%,100%,100%);fill-opacity:1;" d="M 19.703125 4.238281 C 20.171875 4.46875 20.34375 4.761719 20.46875 4.996094 C 20.535156 5.128906 20.574219 5.222656 20.617188 5.402344 C 20.660156 5.582031 20.734375 5.847656 20.832031 6 C 20.730469 5.851562 20.527344 5.65625 20.402344 5.558594 C 20.277344 5.460938 20.136719 5.335938 20.054688 5.226562 C 19.898438 5 19.707031 4.734375 19.703125 4.238281 Z M 19.703125 4.238281 "/>
<path style=" stroke:none;fill-rule:evenodd;fill:rgb(100%,100%,100%);fill-opacity:1;" d="M 20.601562 13.953125 C 19.84375 13.933594 19.109375 14.089844 18.71875 14.171875 C 18.488281 14.238281 18.328125 14.273438 18.042969 14.359375 C 17.761719 14.445312 17.144531 14.601562 16.859375 14.644531 C 17.105469 14.636719 17.753906 14.597656 17.996094 14.609375 C 18.238281 14.613281 18.421875 14.621094 18.664062 14.632812 C 19.222656 14.644531 20.054688 14.425781 20.601562 13.953125 Z M 20.601562 13.953125 "/>
<path style=" stroke:none;fill-rule:evenodd;fill:rgb(100%,100%,100%);fill-opacity:1;" d="M 19.433594 12.835938 C 19.257812 13.496094 18.957031 13.8125 18.667969 14.109375 C 18.5 14.277344 18.335938 14.390625 18.058594 14.496094 C 17.757812 14.601562 17.207031 14.640625 16.867188 14.644531 C 17.15625 14.574219 17.535156 14.476562 17.738281 14.335938 C 17.9375 14.207031 18.085938 13.992188 18.21875 13.832031 C 18.488281 13.503906 18.738281 13.183594 19.433594 12.835938 Z M 19.433594 12.835938 "/>
<path style=" stroke:none;fill-rule:evenodd;fill:rgb(100%,100%,100%);fill-opacity:1;" d="M 21.835938 12.152344 C 21.21875 12.21875 20.664062 12.617188 20.328125 12.816406 C 20.136719 12.929688 20.019531 13.042969 19.832031 13.238281 C 19.648438 13.433594 19.253906 13.773438 19.027344 13.976562 C 19.296875 13.867188 19.683594 13.621094 19.875 13.523438 C 20.070312 13.414062 20.308594 13.335938 20.488281 13.253906 C 20.851562 13.078125 21.472656 12.75 21.835938 12.152344 Z M 21.835938 12.152344 "/>
<path style=" stroke:none;fill-rule:evenodd;fill:rgb(100%,100%,100%);fill-opacity:1;" d="M 20.339844 11.386719 C 20.390625 12.054688 20.324219 12.347656 20.175781 12.695312 C 20.09375 12.898438 20.050781 13.070312 19.882812 13.285156 C 19.71875 13.488281 19.371094 13.816406 19.039062 13.964844 C 19.316406 13.726562 19.476562 13.511719 19.558594 13.292969 C 19.632812 13.085938 19.683594 12.84375 19.726562 12.652344 C 19.824219 12.265625 19.890625 11.941406 20.339844 11.386719 Z M 20.339844 11.386719 "/>
<path style=" stroke:none;fill-rule:evenodd;fill:rgb(100%,100%,100%);fill-opacity:1;" d="M 22.414062 10.210938 C 21.878906 10.453125 21.453125 10.921875 21.183594 11.195312 C 21.035156 11.355469 20.964844 11.492188 20.8125 11.714844 C 20.664062 11.9375 20.546875 12.324219 20.414062 12.625 C 20.570312 12.347656 20.792969 12.160156 20.964844 12.023438 C 21.136719 11.882812 21.347656 11.722656 21.496094 11.597656 C 21.796875 11.339844 22.230469 10.890625 22.414062 10.210938 Z M 22.414062 10.210938 "/>
<path style=" stroke:none;fill-rule:evenodd;fill:rgb(100%,100%,100%);fill-opacity:1;" d="M 20.835938 9.695312 C 21.132812 10.289062 21.070312 10.707031 21.046875 11.09375 C 21.027344 11.367188 20.957031 11.542969 20.84375 11.789062 C 20.726562 12.058594 20.582031 12.328125 20.425781 12.605469 C 20.535156 12.339844 20.582031 12.082031 20.601562 11.867188 C 20.628906 11.648438 20.605469 11.402344 20.597656 11.207031 C 20.582031 10.808594 20.558594 10.34375 20.835938 9.695312 Z M 20.835938 9.695312 "/>
<path style=" stroke:none;fill-rule:evenodd;fill:rgb(100%,100%,100%);fill-opacity:1;" d="M 22.5625 8.421875 C 22.003906 8.75 21.824219 9.089844 21.648438 9.40625 C 21.542969 9.589844 21.464844 9.886719 21.421875 10.09375 C 21.355469 10.367188 21.296875 10.699219 21.21875 11 C 21.363281 10.761719 21.472656 10.476562 21.609375 10.289062 C 21.726562 10.117188 21.875 9.875 21.984375 9.726562 C 22.203125 9.417969 22.460938 9.0625 22.5625 8.421875 Z M 22.5625 8.421875 "/>
<path style=" stroke:none;fill-rule:evenodd;fill:rgb(100%,100%,100%);fill-opacity:1;" d="M 20.835938 8.21875 C 21.28125 8.664062 21.359375 9.105469 21.445312 9.449219 C 21.492188 9.644531 21.476562 9.980469 21.441406 10.164062 C 21.390625 10.410156 21.296875 10.703125 21.222656 10.988281 C 21.253906 10.726562 21.25 10.425781 21.21875 10.214844 C 21.1875 10.015625 21.097656 9.773438 21.035156 9.601562 C 20.914062 9.257812 20.746094 8.863281 20.835938 8.21875 Z M 20.835938 8.21875 "/>
<path style=" stroke:none;fill-rule:evenodd;fill:rgb(100%,100%,100%);fill-opacity:1;" d="M 21.265625 4.851562 C 20.9375 5.367188 20.976562 5.683594 20.96875 6.015625 C 20.972656 6.203125 21.003906 6.421875 21.046875 6.648438 C 21.09375 6.871094 21.292969 7.199219 21.386719 7.46875 C 21.320312 7.117188 21.339844 6.925781 21.34375 6.730469 C 21.339844 6.539062 21.375 6.320312 21.410156 6.152344 C 21.464844 5.8125 21.496094 5.40625 21.265625 4.851562 Z M 21.265625 4.851562 "/>
<path style=" stroke:none;fill-rule:evenodd;fill:rgb(100%,100%,100%);fill-opacity:1;" d="M 19.644531 5.488281 C 20.261719 5.636719 20.558594 5.941406 20.804688 6.171875 C 20.945312 6.308594 21.0625 6.472656 21.160156 6.679688 C 21.253906 6.898438 21.308594 7.1875 21.386719 7.445312 C 21.28125 7.222656 21.128906 6.984375 20.992188 6.855469 C 20.875 6.738281 20.628906 6.585938 20.5 6.472656 C 20.21875 6.226562 19.894531 6.007812 19.644531 5.488281 Z M 19.644531 5.488281 "/>
<path style=" stroke:none;fill-rule:evenodd;fill:rgb(100%,100%,100%);fill-opacity:1;" d="M 21.917969 6.398438 C 21.601562 6.898438 21.523438 7.34375 21.480469 7.707031 C 21.457031 7.867188 21.457031 8.199219 21.480469 8.445312 C 21.515625 8.710938 21.539062 9 21.5625 9.296875 C 21.597656 9.03125 21.65625 8.800781 21.695312 8.59375 C 21.722656 8.457031 21.820312 8.15625 21.855469 7.953125 C 21.933594 7.59375 22.085938 7.054688 21.917969 6.398438 Z M 21.917969 6.398438 "/>
<path style=" stroke:none;fill-rule:evenodd;fill:rgb(100%,100%,100%);fill-opacity:1;" d="M 20.515625 6.730469 C 21.050781 7.078125 21.277344 7.589844 21.402344 7.921875 C 21.472656 8.121094 21.5 8.238281 21.535156 8.484375 C 21.570312 8.742188 21.574219 9.003906 21.5625 9.292969 C 21.539062 9.03125 21.433594 8.863281 21.359375 8.671875 C 21.285156 8.484375 21.066406 8.207031 20.9375 7.964844 C 20.777344 7.644531 20.589844 7.292969 20.515625 6.730469 Z M 20.515625 6.730469 "/>
<path style=" stroke:none;fill-rule:nonzero;fill:rgb(100%,100%,100%);fill-opacity:1;" d="M 15.035156 15.085938 C 14.609375 15.097656 14.636719 14.847656 13.828125 14.824219 C 13.515625 14.816406 12.078125 15.390625 11.207031 15.253906 C 11.261719 15.46875 12.097656 15.800781 12.839844 15.765625 C 13.222656 15.746094 14.339844 15.054688 14.785156 15.363281 C 14.785156 15.363281 14.246094 15.546875 13.65625 16.007812 C 13.296875 16.292969 13.007812 16.757812 12.953125 16.945312 C 13.179688 16.945312 13.402344 17.027344 13.628906 16.890625 C 13.828125 16.785156 14.183594 15.714844 15.039062 15.515625 "/>
<path style=" stroke:none;fill-rule:nonzero;fill:rgb(100%,100%,100%);fill-opacity:1;" d="M 15.023438 15.085938 C 15.449219 15.097656 15.421875 14.847656 16.230469 14.824219 C 16.542969 14.816406 17.984375 15.390625 18.851562 15.253906 C 18.796875 15.46875 17.960938 15.800781 17.21875 15.765625 C 16.835938 15.746094 15.71875 15.054688 15.273438 15.363281 C 15.273438 15.363281 15.8125 15.546875 16.402344 16.007812 C 16.761719 16.292969 17.050781 16.757812 17.105469 16.945312 C 16.878906 16.945312 16.65625 17.027344 16.429688 16.890625 C 16.230469 16.785156 15.875 15.714844 15.019531 15.515625 "/>
</g>
</svg>
